<?xml version="1.0" encoding="UTF-8"?>
<mxfile host="app.diagrams.net">
  <diagram name="PackageConsole Workflow" id="workflow">
    <mxGraphModel dx="1216" dy="710" grid="1" gridSize="10" guides="1" tooltips="1" connect="1" arrows="1" fold="1" page="1" pageScale="1" pageWidth="827" pageHeight="1169">
      <root>
        <mxCell id="0"/>
        <mxCell id="1" parent="0"/>

        <!-- Nodes -->
        <mxCell id="2" value="Sign In" style="ellipse;fillColor=#dae8fc;strokeColor=#6c8ebf;" vertex="1" parent="1">
          <mxGeometry x="160" y="20" width="120" height="60" as="geometry"/>
        </mxCell>
        <mxCell id="3" value="Dashboard" style="rounded=1;fillColor=#e1d5e7;strokeColor=#9673a6;" vertex="1" parent="1">
          <mxGeometry x="160" y="100" width="120" height="60" as="geometry"/>
        </mxCell>
        <mxCell id="4" value="Create Package" style="rounded=1;fillColor=#d5e8d4;strokeColor=#82b366;" vertex="1" parent="1">
          <mxGeometry x="160" y="180" width="120" height="60" as="geometry"/>
        </mxCell>
        <mxCell id="5" value="Upload/Extract INI" style="rounded=1;fillColor=#fff2cc;strokeColor=#d6b656;" vertex="1" parent="1">
          <mxGeometry x="160" y="260" width="140" height="60" as="geometry"/>
        </mxCell>
        <mxCell id="6" value="Post Configuration" style="rounded=1;fillColor=#f8cecc;strokeColor=#b85450;" vertex="1" parent="1">
          <mxGeometry x="160" y="340" width="140" height="60" as="geometry"/>
        </mxCell>
        <mxCell id="7" value="Testing" style="rounded=1;fillColor=#dae8fc;strokeColor=#6c8ebf;" vertex="1" parent="1">
          <mxGeometry x="160" y="420" width="120" height="60" as="geometry"/>
        </mxCell>
        <mxCell id="8" value="Deployment Validation" style="rounded=1;fillColor=#d5e8d4;strokeColor=#82b366;" vertex="1" parent="1">
          <mxGeometry x="160" y="500" width="160" height="60" as="geometry"/>
        </mxCell>
        <mxCell id="9" value="Done" style="ellipse;fillColor=#e1d5e7;strokeColor=#9673a6;" vertex="1" parent="1">
          <mxGeometry x="160" y="580" width="100" height="60" as="geometry"/>
        </mxCell>

        <!-- Arrows -->
        <mxCell id="a2" style="endArrow=block;strokeColor=#000000;" edge="1" parent="1" source="2" target="3"><mxGeometry relative="1" as="geometry"/></mxCell>
        <mxCell id="a3" style="endArrow=block;strokeColor=#000000;" edge="1" parent="1" source="3" target="4"><mxGeometry relative="1" as="geometry"/></mxCell>
        <mxCell id="a4" style="endArrow=block;strokeColor=#000000;" edge="1" parent="1" source="4" target="5"><mxGeometry relative="1" as="geometry"/></mxCell>
        <mxCell id="a5" style="endArrow=block;strokeColor=#000000;" edge="1" parent="1" source="5" target="6"><mxGeometry relative="1" as="geometry"/></mxCell>
        <mxCell id="a6" style="endArrow=block;strokeColor=#000000;" edge="1" parent="1" source="6" target="7"><mxGeometry relative="1" as="geometry"/></mxCell>
        <mxCell id="a7" style="endArrow=block;strokeColor=#000000;" edge="1" parent="1" source="7" target="8"><mxGeometry relative="1" as="geometry"/></mxCell>
        <mxCell id="a8" style="endArrow=block;strokeColor=#000000;" edge="1" parent="1" source="8" target="9"><mxGeometry relative="1" as="geometry"/></mxCell>

      </root>
    </mxGraphModel>
  </diagram>
</mxfile>
